<?xml version="1.0" standalone="no"?><!DOCTYPE svg PUBLIC "-//W3C//DTD SVG 1.1//EN" "http://www.w3.org/Graphics/SVG/1.1/DTD/svg11.dtd"><svg t="1678518078768" class="icon" viewBox="0 0 1024 1024" version="1.1" xmlns="http://www.w3.org/2000/svg" p-id="1985" xmlns:xlink="http://www.w3.org/1999/xlink" width="64" height="64"><path d="M361.381 63.54H181.766c-64.816 0-117.545 52.728-117.545 117.545v179.619c0 38.365 18.556 72.388 47.074 93.855v1.398h1.868c19.332 13.962 42.986 22.291 68.602 22.291h297.159V181.085c0.002-64.816-52.726-117.545-117.543-117.545zM64.222 661.488v179.619c0 64.816 52.728 117.544 117.545 117.544h179.615c64.816 0 117.545-52.728 117.545-117.544V543.944H181.766c-64.816 0-117.544 52.728-117.544 117.544zM841.789 63.54H662.17c-64.816 0-117.544 52.728-117.544 117.545v297.164H841.79c64.816 0 117.544-52.728 117.544-117.544v-179.62c-0.001-64.816-52.729-117.545-117.545-117.545zM841.789 543.944H544.625v297.164c0 64.816 52.728 117.544 117.544 117.544h179.619c64.816 0 117.544-52.728 117.544-117.544v-179.62c0.001-64.816-52.727-117.544-117.543-117.544z" fill="#242525" p-id="1986"></path></svg>